<svg width="30" height="31" viewBox="0 0 30 31" fill="none" xmlns="http://www.w3.org/2000/svg">
<g clip-path="url(#clip0_25_177)">
<path fill-rule="evenodd" clip-rule="evenodd" d="M25.6288 4.38047C22.8091 1.55712 19.0588 0.00147059 15.063 0C6.82929 0 0.128235 6.70035 0.125353 14.9362C0.123941 17.5691 0.812235 20.1389 2.11935 22.4036L0 30.1446L7.91865 28.0675C10.1002 29.258 12.5569 29.8846 15.0566 29.8854H15.063C23.2953 29.8854 29.9971 23.1844 29.9999 14.9484C30.0014 10.9569 28.4493 7.20459 25.6288 4.38118V4.38047ZM15.063 27.3628H15.058C12.8305 27.3622 10.6453 26.7633 8.73871 25.6324L8.28535 25.3632L3.58618 26.5957L4.84029 22.014L4.54518 21.5442C3.30253 19.5674 2.64576 17.2826 2.64718 14.937C2.65006 8.09194 8.21947 2.52253 15.0681 2.52253C18.3841 2.524 21.5012 3.81682 23.8454 6.16388C26.1896 8.51024 27.4795 11.6302 27.4781 14.947C27.4752 21.7927 21.9059 27.3622 15.063 27.3622V27.3628ZM21.8729 18.0648C21.4997 17.8778 19.6648 16.9754 19.3224 16.8507C18.9801 16.7261 18.7316 16.6638 18.483 17.0376C18.2345 17.4116 17.519 18.2524 17.3012 18.5009C17.0835 18.7502 16.8658 18.781 16.4926 18.594C16.1195 18.4071 14.9169 18.0132 13.4909 16.7418C12.3815 15.752 11.6322 14.5302 11.4146 14.1562C11.1968 13.7824 11.3916 13.5804 11.5778 13.3949C11.7454 13.2274 11.951 12.9588 12.1379 12.741C12.3249 12.5232 12.3865 12.3672 12.5111 12.1186C12.6358 11.8693 12.5734 11.6517 12.4804 11.4646C12.3872 11.2778 11.6409 9.44059 11.3293 8.69359C11.0263 7.96594 10.7184 8.06476 10.4899 8.05259C10.2721 8.04182 10.0236 8.03971 9.77441 8.03971C9.52518 8.03971 9.12118 8.13276 8.77882 8.50671C8.43647 8.88047 7.47241 9.78371 7.47241 11.6201C7.47241 13.4565 8.80965 15.2321 8.99659 15.4814C9.18347 15.7306 11.6286 19.5001 15.3724 21.1174C16.2627 21.5019 16.9581 21.7318 17.5004 21.9037C18.3942 22.1881 19.2078 22.148 19.8509 22.0519C20.568 21.9446 22.0592 21.1488 22.37 20.2771C22.6808 19.4055 22.6808 18.6578 22.5877 18.5023C22.4946 18.3469 22.2454 18.2531 21.8722 18.0662L21.8729 18.0648Z" fill="#4F402A"/>
</g>
<defs>
<clipPath id="clip0_25_177">
<rect width="30" height="30.1446" fill="white"/>
</clipPath>
</defs>
</svg>
