<svg width="30" height="30" viewBox="0 0 30 30" fill="none" xmlns="http://www.w3.org/2000/svg">
<g clip-path="url(#clip0_25_175)">
<path fill-rule="evenodd" clip-rule="evenodd" d="M29.6938 9.00186C29.6938 9.00186 29.401 6.93397 28.4996 6.026C27.3574 4.83177 26.0785 4.82403 25.4938 4.75484C21.2988 4.44922 14.9983 4.44922 14.9983 4.44922H14.9873C14.9873 4.44922 8.68951 4.44922 4.49228 4.75484C3.9054 4.82623 2.62815 4.83125 1.48651 6.026C0.584638 6.93397 0.297857 9.00186 0.297857 9.00186C0.297857 9.00186 -0.000549316 11.4285 -0.000549316 13.8601V16.134C-0.000549316 18.5606 0.297857 20.9923 0.297857 20.9923C0.297857 20.9923 0.590732 23.0601 1.48651 23.9698C2.62815 25.164 4.12853 25.1252 4.79847 25.2526C7.2002 25.4818 15.0005 25.551 15.0005 25.551C15.0005 25.551 21.3066 25.5399 25.5016 25.2398C26.0884 25.1706 27.3651 25.1634 28.5073 23.9686C29.4092 23.0607 29.7015 20.9906 29.7015 20.9906C29.7015 20.9906 30 18.564 30 16.1323V13.8585C29.9939 11.4318 29.6955 9.00022 29.6955 9.00022L29.6938 9.00186ZM11.8907 18.8928V10.4613L19.995 14.6912L11.8907 18.8928Z" fill="#4F402A"/>
</g>
<defs>
<clipPath id="clip0_25_175">
<rect width="30" height="30" fill="white"/>
</clipPath>
</defs>
</svg>
