<svg width="30" height="30" viewBox="0 0 30 30" fill="none" xmlns="http://www.w3.org/2000/svg">
<g clip-path="url(#clip0_25_171)">
<path d="M9.99976 15.0092C9.9949 12.2482 12.2295 10.0053 14.99 10.0005C17.751 9.99508 19.9943 12.2287 19.9997 14.9903C20.0051 17.7518 17.7704 19.9942 15.0089 19.9996C12.2485 20.0048 10.0051 17.7707 9.99976 15.0092ZM7.29812 15.0146C7.30639 19.2686 10.7614 22.7095 15.0143 22.7012C19.2678 22.693 22.7106 19.239 22.7024 14.9849C22.6941 10.7324 19.2387 7.28946 14.9847 7.29778C10.7317 7.30604 7.28986 10.7615 7.29812 15.0146ZM21.1909 6.98184C21.1929 7.97524 22.0005 8.77961 22.994 8.77768C23.9878 8.77569 24.7922 7.96844 24.7907 6.97504C24.7888 5.98165 23.9811 5.1768 22.9872 5.17879C21.9933 5.18073 21.189 5.98844 21.1909 6.98184ZM8.96266 27.2201C7.50027 27.1565 6.70615 26.9134 6.17693 26.7098C5.47609 26.4387 4.976 26.1135 4.44965 25.5911C3.9243 25.0666 3.59816 24.568 3.32453 23.8686C3.11898 23.3393 2.8716 22.5462 2.80305 21.0838C2.72869 19.5028 2.7117 19.0285 2.70443 15.0233C2.69664 11.0191 2.71123 10.5448 2.78025 8.96231C2.84289 7.50092 3.0874 6.70575 3.29055 6.177C3.56172 5.47522 3.88592 4.97606 4.40933 4.44977C4.93369 3.92342 5.43232 3.59829 6.13217 3.32465C6.66098 3.11805 7.4541 2.8726 8.91601 2.80317C10.4979 2.72829 10.9718 2.71229 14.976 2.7045C18.981 2.6967 19.4553 2.71083 21.0378 2.78032C22.4992 2.84395 23.2943 3.086 23.8226 3.29061C24.5239 3.56178 25.024 3.88504 25.5498 4.4094C26.0757 4.93381 26.4018 5.43145 26.6754 6.13282C26.8819 6.6601 27.1274 7.45422 27.1964 8.91567C27.2717 10.4976 27.2888 10.972 27.2961 14.9761C27.3038 18.9813 27.2892 19.4557 27.2198 21.0372C27.1561 22.4995 26.9136 23.2942 26.7095 23.8239C26.4382 24.5243 26.1141 25.0244 25.5902 25.5507C25.0663 26.0751 24.5676 26.4022 23.8673 26.6758C23.3395 26.8819 22.5454 27.1278 21.0845 27.1973C19.5026 27.2716 19.0287 27.2887 15.0231 27.2959C11.0189 27.3037 10.5451 27.2887 8.96266 27.2201ZM8.78769 0.103872C7.19166 0.179224 6.10158 0.43481 5.14896 0.80811C4.16289 1.19254 3.32699 1.7077 2.49549 2.54266C1.66293 3.37809 1.15164 4.21545 0.770136 5.20252C0.400819 6.15754 0.150507 7.24815 0.0800184 8.84518C0.0100574 10.4451 -0.00599726 10.9554 0.00179571 15.0286C0.00958868 19.1014 0.0275184 19.6127 0.103807 21.2131C0.180096 22.8087 0.434804 23.8983 0.808046 24.8513C1.19295 25.8374 1.70764 26.6729 2.54307 27.5049C3.37803 28.337 4.21592 28.8478 5.20346 29.2298C6.15748 29.5986 7.24849 29.8499 8.84506 29.9199C10.445 29.9904 10.9557 30.0059 15.0279 29.9982C19.1021 29.9904 19.6129 29.9724 21.2128 29.8966C22.8088 29.8203 23.8979 29.5647 24.8515 29.1923C25.8375 28.8065 26.6734 28.2927 27.5051 27.4573C28.3366 26.6223 28.8478 25.7845 29.2294 24.7969C29.5987 23.8429 29.85 22.7518 29.9194 21.1563C29.9894 19.5553 30.006 19.044 29.9982 14.9713C29.9904 10.8981 29.972 10.3878 29.8962 8.78835C29.8203 7.19131 29.5647 6.10217 29.1919 5.14862C28.8065 4.16254 28.2924 3.32752 27.4574 2.49502C26.6225 1.66346 25.7846 1.15118 24.797 0.770669C23.8425 0.401294 22.7519 0.149575 21.1554 0.0805518C19.5555 0.00959474 19.0447 -0.00593261 14.971 0.00180176C10.8984 0.00959473 10.3876 0.0270557 8.78769 0.103872Z" fill="#4F402A"/>
</g>
<defs>
<clipPath id="clip0_25_171">
<rect width="30" height="30" fill="white"/>
</clipPath>
</defs>
</svg>
