<svg width="280" height="57" viewBox="0 0 280 57" fill="none" xmlns="http://www.w3.org/2000/svg">
<g filter="url(#filter0_d_3_6)">
<path d="M10.02 48.5C9.06 48.5 8.26 48.34 7.62 48.02C7.02 47.7 6.6 47.18 6.36 46.46C6.12 45.7 6 44.84 6 43.88C6 41.2 6.66 37.98 7.98 34.22C9.3 30.46 10.76 26.66 12.36 22.82C14.36 18.06 15.84 13.96 16.8 10.52C16.68 10.48 16.58 10.34 16.5 10.1C16.42 9.86 16.38 9.56 16.38 9.2C16.38 8.6 16.48 7.98 16.68 7.34C16.92 6.66 17.26 6.32 17.7 6.32C18.02 6.32 18.38 6.6 18.78 7.16C18.94 7.48 19.02 7.86 19.02 8.3C19.02 8.5 19 8.72 18.96 8.96C18.96 9.16 18.94 9.32 18.9 9.44C17.82 13.36 16.02 18.2 13.5 23.96C11.78 28 10.22 31.9 8.82 35.66C7.46 39.38 6.78 42.36 6.78 44.6C6.78 45.24 6.86 45.8 7.02 46.28C7.42 47.04 8.26 47.42 9.54 47.42C10.54 47.42 11.74 47.26 13.14 46.94C14.58 46.62 16.14 46.24 17.82 45.8C19.82 45.24 21.88 44.74 24 44.3C26.12 43.82 28.1 43.58 29.94 43.58C32.1 43.58 33.92 44.06 35.4 45.02C35.56 45.14 35.64 45.24 35.64 45.32C35.64 45.4 35.58 45.44 35.46 45.44C35.38 45.44 35.26 45.4 35.1 45.32C33.94 44.6 32.52 44.24 30.84 44.24C29.16 44.24 27.34 44.48 25.38 44.96C23.42 45.4 21.44 45.92 19.44 46.52C17.64 47.04 15.92 47.5 14.28 47.9C12.64 48.3 11.22 48.5 10.02 48.5ZM26.8036 37.94L26.4436 37.82C25.9236 37.42 25.6636 36.74 25.6636 35.78C25.6636 34.74 25.8436 33.62 26.2036 32.42C26.5636 31.22 26.8636 30.3 27.1036 29.66C27.1836 29.5 27.2836 29.4 27.4036 29.36C27.5636 29.28 27.7236 29.24 27.8836 29.24C28.0436 29.24 28.1836 29.28 28.3036 29.36C28.4236 29.44 28.4836 29.56 28.4836 29.72L28.4236 30.02C28.0636 30.78 27.6836 31.84 27.2836 33.2C26.8836 34.56 26.6836 35.64 26.6836 36.44C26.6836 36.76 26.7436 36.98 26.8636 37.1L27.1036 37.22C27.5836 37.22 28.2836 36.56 29.2036 35.24C30.1636 33.88 31.0636 32.54 31.9036 31.22C32.3036 30.5 32.6636 29.92 32.9836 29.48C33.3036 29.12 33.6036 28.94 33.8836 28.94C34.1636 28.94 34.3436 29.12 34.4236 29.48L34.3036 29.96C33.3036 32.52 32.8036 34.34 32.8036 35.42C32.8036 36.14 32.9236 36.56 33.1636 36.68C33.2836 36.76 33.4236 36.8 33.5836 36.8C34.2236 36.8 35.0436 36.44 36.0436 35.72C37.0436 34.96 38.0036 34.12 38.9236 33.2C39.8836 32.24 40.6436 31.4 41.2036 30.68C41.3236 30.56 41.4236 30.5 41.5036 30.5C41.5836 30.5 41.6436 30.52 41.6836 30.56C41.7236 30.6 41.7436 30.66 41.7436 30.74C41.7436 30.82 41.7236 30.9 41.6836 30.98C40.6436 32.38 39.2236 33.84 37.4236 35.36C35.6236 36.84 34.1436 37.58 32.9836 37.58C32.1836 37.58 31.7436 36.96 31.6636 35.72C31.6636 34.76 31.9836 33.34 32.6236 31.46C32.2236 31.98 31.8236 32.52 31.4236 33.08C30.5836 34.32 29.7436 35.44 28.9036 36.44C28.1036 37.44 27.4036 37.94 26.8036 37.94ZM42.1777 39.32C41.2977 39.32 40.5377 39.08 39.8977 38.6C39.2177 38 38.8777 37.2 38.8777 36.2C38.8777 34.6 39.5577 32.86 40.9177 30.98C42.2377 29.1 43.7577 27.86 45.4777 27.26C45.9177 27.14 46.3177 27.08 46.6777 27.08C47.1977 27.08 47.6377 27.2 47.9977 27.44C48.3577 27.64 48.5377 27.98 48.5377 28.46C48.5377 28.86 48.3777 29.36 48.0577 29.96C47.6977 30.56 47.3177 31.06 46.9177 31.46C46.7577 31.62 46.5977 31.7 46.4377 31.7C46.2777 31.7 46.1577 31.66 46.0777 31.58C45.9977 31.5 45.9577 31.38 45.9577 31.22C45.9577 31.1 46.0377 30.94 46.1977 30.74L47.2777 29.54C47.7177 28.98 47.9377 28.54 47.9377 28.22C47.9377 27.82 47.6777 27.62 47.1577 27.62C46.8377 27.62 46.4377 27.7 45.9577 27.86C44.3977 28.5 42.9977 29.78 41.7577 31.7C40.5577 33.58 39.9577 35.22 39.9577 36.62C39.9577 37.22 40.0977 37.72 40.3777 38.12C40.7777 38.56 41.3577 38.78 42.1177 38.78C43.1977 38.78 44.4577 38.36 45.8977 37.52C47.8577 36.32 49.4777 35.12 50.7577 33.92C52.0777 32.68 53.1177 31.62 53.8777 30.74C53.9577 30.66 54.0377 30.62 54.1177 30.62C54.1977 30.62 54.2577 30.66 54.2977 30.74C54.3777 30.78 54.4177 30.82 54.4177 30.86C54.4177 30.94 54.3977 31 54.3577 31.04C53.5577 32.04 52.4977 33.16 51.1777 34.4C49.8577 35.64 48.1977 36.86 46.1977 38.06C44.7577 38.9 43.4177 39.32 42.1777 39.32ZM54.7739 38.72C54.0139 38.72 53.4739 38.42 53.1539 37.82C52.7939 37.22 52.6139 36.56 52.6139 35.84C52.6139 34.76 52.8139 33.62 53.2139 32.42C53.6139 31.22 53.9539 30.26 54.2339 29.54C54.3539 29.26 54.5539 29.12 54.8339 29.12C55.0339 29.12 55.2139 29.18 55.3739 29.3C55.5739 29.42 55.6739 29.56 55.6739 29.72V29.84C55.3539 30.52 54.9539 31.58 54.4739 33.02C53.9939 34.42 53.7539 35.62 53.7539 36.62C53.7539 37.18 53.8339 37.56 53.9939 37.76C54.1539 37.92 54.4339 38.02 54.8339 38.06C55.7139 38.06 56.7539 37.58 57.9539 36.62C59.1939 35.66 60.3339 34.64 61.3739 33.56C62.4539 32.44 63.2539 31.6 63.7739 31.04C63.8139 30.96 63.8539 30.9 63.8939 30.86C63.9739 30.78 64.0539 30.74 64.1339 30.74C64.2139 30.74 64.2939 30.78 64.3739 30.86C64.4539 30.9 64.4939 30.96 64.4939 31.04L64.3739 31.28C63.9739 31.76 63.2139 32.6 62.0939 33.8C60.9739 34.96 59.7339 36.08 58.3739 37.16C57.0139 38.2 55.8139 38.72 54.7739 38.72ZM55.8539 27.14C55.6939 27.14 55.6139 27.02 55.6139 26.78C55.6139 26.58 55.6739 26.34 55.7939 26.06C55.9139 25.74 56.0539 25.48 56.2139 25.28C56.4139 25.04 56.5739 24.92 56.6939 24.92C56.8539 24.92 56.9739 24.98 57.0539 25.1C57.1339 25.22 57.1739 25.38 57.1739 25.58C57.1739 25.9 57.0139 26.24 56.6939 26.6C56.4139 26.96 56.1339 27.14 55.8539 27.14ZM62.2106 38.84C61.4906 38.84 61.0706 38.28 60.9506 37.16C60.9506 35.68 61.5306 34.08 62.6906 32.36C63.8506 30.6 65.1106 29.62 66.4706 29.42C67.1106 29.42 67.7306 29.84 68.3306 30.68L68.9906 29.54C69.1106 29.38 69.2506 29.3 69.4106 29.3C69.6106 29.3 69.7906 29.38 69.9506 29.54C70.1506 29.7 70.2506 29.88 70.2506 30.08C70.1306 30.52 69.9506 31.04 69.7106 31.64C69.5106 32.2 69.3106 32.82 69.1106 33.5C68.9106 34.14 68.8106 34.82 68.8106 35.54C68.8106 35.9 68.8506 36.28 68.9306 36.68C69.0506 37.08 69.2706 37.28 69.5906 37.28C69.9906 37.28 70.5506 36.94 71.2706 36.26C71.9906 35.54 72.7906 34.7 73.6706 33.74C74.8706 32.38 76.0906 31.12 77.3306 29.96C78.6106 28.8 79.7306 28.22 80.6906 28.22C81.1706 28.22 81.4506 28.52 81.5306 29.12C81.5306 29.4 81.4506 29.78 81.2906 30.26L79.8506 35.42C80.7706 33.78 81.7106 32.38 82.6706 31.22C83.6306 30.02 84.5106 29.42 85.3106 29.42C86.1906 29.42 86.6306 29.92 86.6306 30.92C86.6306 31.92 86.3506 33.1 85.7906 34.46C85.3906 35.46 85.1906 36.2 85.1906 36.68C85.1906 36.88 85.2106 37 85.2506 37.04C85.3306 37.08 85.4306 37.1 85.5506 37.1C85.5506 37.14 85.5706 37.16 85.6106 37.16C86.2106 37.16 87.1906 36.7 88.5506 35.78C89.9106 34.82 91.1706 33.84 92.3306 32.84C93.4906 31.84 94.1706 31.18 94.3706 30.86C94.4506 30.74 94.5306 30.68 94.6106 30.68C94.6906 30.68 94.7506 30.72 94.7906 30.8C94.8706 30.84 94.9106 30.9 94.9106 30.98L94.8506 31.16C94.4506 31.68 93.6306 32.46 92.3906 33.5C91.1506 34.54 89.7906 35.54 88.3106 36.5C86.8706 37.42 85.7306 37.88 84.8906 37.88C84.5706 37.8 84.3306 37.72 84.1706 37.64C84.0106 37.52 83.9306 37.24 83.9306 36.8C83.9306 35.96 84.2306 34.88 84.8306 33.56C85.3106 32.36 85.5506 31.44 85.5506 30.8C85.5506 30.4 85.4106 30.2 85.1306 30.2C84.5706 30.2 83.8706 30.72 83.0306 31.76C82.2306 32.76 81.4706 33.84 80.7506 35C80.0706 36.16 79.5906 37.02 79.3106 37.58C79.2706 37.7 79.1906 37.8 79.0706 37.88C78.9506 37.92 78.8306 37.94 78.7106 37.94C78.5506 37.94 78.4106 37.9 78.2906 37.82C78.1706 37.74 78.1106 37.64 78.1106 37.52V37.4C78.3906 36.48 78.7106 35.28 79.0706 33.8C79.4706 32.28 79.8106 31 80.0906 29.96C80.1306 29.88 80.1506 29.82 80.1506 29.78C80.1906 29.7 80.2106 29.64 80.2106 29.6C80.2106 29.56 80.2106 29.5 80.2106 29.42C80.2106 29.18 80.1306 29.06 79.9706 29.06C79.5706 29.06 78.9906 29.42 78.2306 30.14C77.4706 30.86 76.6106 31.72 75.6506 32.72C74.4506 34 73.2306 35.18 71.9906 36.26C70.7906 37.34 69.8306 37.88 69.1106 37.88C68.5506 37.88 68.1506 37.6 67.9106 37.04C67.7106 36.48 67.6106 35.92 67.6106 35.36C67.6106 34.8 67.6706 34.26 67.7906 33.74C67.9106 33.18 68.0306 32.7 68.1506 32.3C68.1106 32.38 68.0706 32.46 68.0306 32.54C67.0706 34.06 66.0706 35.5 65.0306 36.86C63.9906 38.18 63.0506 38.84 62.2106 38.84ZM62.0906 38.36C62.6906 38.36 63.5306 37.66 64.6106 36.26C65.6906 34.82 66.6506 33.4 67.4906 32C67.1706 31.36 66.7706 31.04 66.2906 31.04C65.6506 31.04 64.9706 31.48 64.2506 32.36C63.5306 33.24 62.9106 34.22 62.3906 35.3C61.8706 36.34 61.6106 37.16 61.6106 37.76C61.6106 38.16 61.7706 38.36 62.0906 38.36ZM92.6794 38.78C91.9994 38.78 91.5794 38.22 91.4194 37.1C91.4194 35.78 91.9794 34.22 93.0994 32.42C94.2194 30.62 95.4394 29.6 96.7594 29.36C97.4794 29.36 98.1594 29.78 98.7994 30.62C99.0394 30.38 99.2194 30.14 99.3394 29.9C99.4194 29.7 99.4994 29.56 99.5794 29.48C99.6594 29.36 99.7794 29.3 99.9394 29.3C100.099 29.3 100.259 29.38 100.419 29.54C100.619 29.7 100.719 29.88 100.719 30.08L100.659 30.32C100.379 30.92 100.079 31.72 99.7594 32.72C99.4394 33.72 99.2794 34.64 99.2794 35.48C99.2794 36.04 99.3794 36.5 99.5794 36.86C99.7794 37.22 100.099 37.4 100.539 37.4C101.299 37.4 102.279 36.98 103.479 36.14C104.719 35.3 105.919 34.38 107.079 33.38C108.239 32.38 109.119 31.58 109.719 30.98C109.799 30.9 109.859 30.84 109.899 30.8L110.139 30.68C110.219 30.68 110.279 30.72 110.319 30.8C110.399 30.88 110.439 30.96 110.439 31.04C110.439 31.12 110.399 31.2 110.319 31.28C110.239 31.36 110.159 31.44 110.079 31.52C109.439 32.16 108.519 33 107.319 34.04C106.159 35.04 104.919 35.96 103.599 36.8C102.279 37.64 101.139 38.06 100.179 38.06C99.4594 38.06 98.9194 37.8 98.5594 37.28C98.2394 36.76 98.0794 36.12 98.0794 35.36C98.0794 34.8 98.1394 34.24 98.2594 33.68C98.3794 33.12 98.4994 32.64 98.6194 32.24C97.7794 33.68 96.7994 35.14 95.6794 36.62C94.5594 38.06 93.5594 38.78 92.6794 38.78ZM92.5594 38.3C93.1594 38.3 93.9994 37.6 95.0794 36.2C96.1594 34.76 97.1194 33.36 97.9594 32C97.6394 31.36 97.2394 31.04 96.7594 31.04C96.1194 31.04 95.4394 31.48 94.7194 32.36C93.9994 33.24 93.3794 34.22 92.8594 35.3C92.3394 36.34 92.0794 37.14 92.0794 37.7C92.0794 38.14 92.2394 38.34 92.5594 38.3ZM133.587 45.62C130.507 45.62 128.287 44.78 126.927 43.1C125.567 41.38 124.887 39.18 124.887 36.5C124.887 34.06 125.307 31.64 126.147 29.24C127.427 25.56 129.227 21.98 131.547 18.5C133.907 15.02 136.527 12.12 139.407 9.8C142.327 7.44 145.187 6.26 147.987 6.26C150.907 6.3 152.367 8.24 152.367 12.08C152.367 13.88 151.927 15.84 151.047 17.96C150.207 20.08 148.927 22.02 147.207 23.78C146.927 24.22 146.567 24.54 146.127 24.74C145.727 24.9 145.327 24.98 144.927 24.98C144.647 24.98 144.407 24.94 144.207 24.86C144.007 24.74 143.907 24.56 143.907 24.32C143.907 23.88 144.567 23.2 145.887 22.28C147.447 21.24 148.727 19.66 149.727 17.54C150.767 15.42 151.287 13.42 151.287 11.54C151.287 10.22 150.987 9.18 150.387 8.42C149.827 7.62 148.907 7.2 147.627 7.16C145.427 7.16 142.987 8.3 140.307 10.58C137.667 12.82 135.167 15.64 132.807 19.04C130.447 22.4 128.567 25.86 127.167 29.42C126.087 32.02 125.547 34.58 125.547 37.1C125.547 39.46 126.127 41.26 127.287 42.5C128.447 43.74 130.467 44.44 133.347 44.6C136.187 44.6 139.087 43.88 142.047 42.44C145.007 41 147.707 39.2 150.147 37.04C152.587 34.88 154.527 32.66 155.967 30.38C156.207 30.06 156.407 29.9 156.567 29.9C156.687 29.9 156.767 30 156.807 30.2C156.807 30.32 156.747 30.46 156.627 30.62C155.147 32.98 153.167 35.3 150.687 37.58C148.207 39.86 145.447 41.78 142.407 43.34C139.407 44.86 136.467 45.62 133.587 45.62ZM153.968 38.78C153.288 38.78 152.868 38.22 152.708 37.1C152.708 35.78 153.268 34.22 154.388 32.42C155.508 30.62 156.728 29.6 158.048 29.36C158.768 29.36 159.448 29.78 160.088 30.62C160.328 30.38 160.508 30.14 160.628 29.9C160.708 29.7 160.788 29.56 160.868 29.48C160.948 29.36 161.068 29.3 161.228 29.3C161.388 29.3 161.548 29.38 161.708 29.54C161.908 29.7 162.008 29.88 162.008 30.08L161.948 30.32C161.668 30.92 161.368 31.72 161.048 32.72C160.728 33.72 160.568 34.64 160.568 35.48C160.568 36.04 160.668 36.5 160.868 36.86C161.068 37.22 161.388 37.4 161.828 37.4C162.588 37.4 163.568 36.98 164.768 36.14C166.008 35.3 167.208 34.38 168.368 33.38C169.528 32.38 170.408 31.58 171.008 30.98C171.088 30.9 171.148 30.84 171.188 30.8L171.428 30.68C171.508 30.68 171.568 30.72 171.608 30.8C171.688 30.88 171.728 30.96 171.728 31.04C171.728 31.12 171.688 31.2 171.608 31.28C171.528 31.36 171.448 31.44 171.368 31.52C170.728 32.16 169.808 33 168.608 34.04C167.448 35.04 166.208 35.96 164.888 36.8C163.568 37.64 162.428 38.06 161.468 38.06C160.748 38.06 160.208 37.8 159.848 37.28C159.528 36.76 159.368 36.12 159.368 35.36C159.368 34.8 159.428 34.24 159.548 33.68C159.668 33.12 159.788 32.64 159.908 32.24C159.068 33.68 158.088 35.14 156.968 36.62C155.848 38.06 154.848 38.78 153.968 38.78ZM153.848 38.3C154.448 38.3 155.288 37.6 156.368 36.2C157.448 34.76 158.408 33.36 159.248 32C158.928 31.36 158.528 31.04 158.048 31.04C157.408 31.04 156.728 31.48 156.008 32.36C155.288 33.24 154.668 34.22 154.148 35.3C153.628 36.34 153.368 37.14 153.368 37.7C153.368 38.14 153.528 38.34 153.848 38.3ZM169.737 50.72H169.437C168.917 50.72 168.477 50.6 168.117 50.36C167.757 50.12 167.577 49.74 167.577 49.22C167.617 48.06 169.617 45.28 173.577 40.88C173.377 40.44 173.157 40 172.917 39.56C172.357 38.6 171.857 37.6 171.417 36.56C170.977 35.48 170.757 34.32 170.757 33.08C170.757 31.6 171.177 30.24 172.017 29C172.897 27.72 173.997 27.08 175.317 27.08C175.837 27.08 176.417 27.26 177.057 27.62C177.697 27.94 178.017 28.34 178.017 28.82C178.017 29.02 177.957 29.2 177.837 29.36C177.717 29.52 177.557 29.6 177.357 29.6C177.157 29.6 176.937 29.5 176.697 29.3C176.017 28.7 175.417 28.4 174.897 28.4C173.377 28.4 172.497 29.92 172.257 32.96C172.257 34.12 172.437 35.2 172.797 36.2C173.157 37.16 173.577 38.1 174.057 39.02C174.217 39.3 174.357 39.58 174.477 39.86C177.197 36.78 180.057 33.36 183.057 29.6C186.057 25.8 188.577 21.98 190.617 18.14C188.137 18.58 185.957 18.8 184.077 18.8C182.837 18.8 181.817 18.66 181.017 18.38C180.257 18.06 179.877 17.52 179.877 16.76C179.877 16.36 179.997 16.16 180.237 16.16C180.397 16.16 180.497 16.34 180.537 16.7V16.94C180.537 17.78 181.437 18.16 183.237 18.08C185.237 18.08 187.857 17.78 191.097 17.18C192.337 14.62 193.137 12.18 193.497 9.86C193.497 9.54 193.597 9.36 193.797 9.32C193.957 9.32 194.097 9.5 194.217 9.86C194.337 10.18 194.397 10.58 194.397 11.06C194.397 12.46 194.057 14.38 193.377 16.82C196.017 16.42 198.257 16.22 200.097 16.22C201.497 16.22 202.557 16.4 203.277 16.76C203.357 16.8 203.457 16.88 203.577 17C203.697 17.12 203.797 17.26 203.877 17.42C203.997 17.54 204.057 17.64 204.057 17.72C204.057 17.8 203.977 17.84 203.817 17.84C203.657 17.84 203.437 17.8 203.157 17.72C202.877 17.6 202.617 17.48 202.377 17.36C202.177 17.2 202.077 17.08 202.077 17C202.077 16.88 202.217 16.82 202.497 16.82L201.357 16.7C199.597 16.7 197.077 17.02 193.797 17.66C193.597 17.7 193.377 17.74 193.137 17.78C192.497 19.94 191.797 22.22 191.037 24.62C190.117 27.5 189.277 30.26 188.517 32.9C187.797 35.54 187.437 37.64 187.437 39.2C187.437 40.08 187.577 40.68 187.857 41C188.177 41.32 188.537 41.48 188.937 41.48C190.057 41.48 191.477 40.78 193.197 39.38C194.957 37.98 196.577 36.46 198.057 34.82C199.537 33.18 200.537 31.88 201.057 30.92C201.137 30.8 201.237 30.74 201.357 30.74C201.437 30.74 201.517 30.78 201.597 30.86C201.677 30.9 201.717 30.96 201.717 31.04L201.657 31.22C201.097 32.26 200.057 33.64 198.537 35.36C197.017 37.04 195.337 38.6 193.497 40.04C191.697 41.48 190.157 42.2 188.877 42.2C187.397 42.2 186.597 40.9 186.477 38.3C186.477 36.1 186.937 33.34 187.857 30.02C188.817 26.66 189.837 23.36 190.917 20.12C191.117 19.56 191.297 19 191.457 18.44C189.417 22.52 186.837 26.48 183.717 30.32C180.637 34.16 177.697 37.6 174.897 40.64C175.417 41.64 175.677 42.68 175.677 43.76C175.677 45.24 175.237 46.64 174.357 47.96C172.957 49.72 171.417 50.64 169.737 50.72ZM169.737 50.06C170.377 50.02 171.077 49.8 171.837 49.4C172.597 49 173.237 48.4 173.757 47.6C174.317 46.56 174.597 45.58 174.597 44.66C174.597 43.5 174.377 42.52 173.937 41.72C170.177 45.76 168.297 48.28 168.297 49.28C168.297 49.56 168.417 49.76 168.657 49.88C168.857 50 169.137 50.06 169.497 50.06H169.737ZM201.419 38.9C200.539 38.9 199.819 38.68 199.259 38.24C198.659 37.8 198.359 37.16 198.359 36.32C198.359 35.6 198.599 34.74 199.079 33.74C199.519 32.74 200.139 31.8 200.939 30.92C202.419 29.52 203.659 28.82 204.659 28.82C205.459 28.82 205.899 29.22 205.979 30.02C205.979 30.78 205.339 31.7 204.059 32.78C202.779 33.82 201.219 34.46 199.379 34.7C199.219 35.26 199.139 35.74 199.139 36.14C199.139 37.46 199.779 38.08 201.059 38C202.179 38 203.579 37.58 205.259 36.74C206.979 35.86 208.559 34.88 209.999 33.8C211.439 32.68 212.439 31.7 212.999 30.86C213.079 30.74 213.159 30.68 213.239 30.68C213.319 30.68 213.399 30.74 213.479 30.86C213.559 30.94 213.599 31.02 213.599 31.1L213.539 31.22C212.859 32.06 211.699 33.18 210.059 34.58C208.459 35.94 206.739 37.1 204.899 38.06C203.619 38.62 202.459 38.9 201.419 38.9ZM199.679 34.04C200.399 33.8 201.179 33.44 202.019 32.96C202.899 32.48 203.659 31.96 204.299 31.4C204.939 30.8 205.259 30.32 205.259 29.96C205.259 29.68 205.059 29.52 204.659 29.48C204.019 29.48 203.199 29.9 202.199 30.74C201.199 31.54 200.379 32.58 199.739 33.86C199.699 33.9 199.679 33.94 199.679 33.98C199.679 33.98 199.679 34 199.679 34.04ZM228.312 48.08C226.872 47.24 225.832 45.86 225.192 43.94C224.552 41.98 224.232 39.74 224.232 37.22C224.232 36.06 224.292 34.88 224.412 33.68C223.812 34.44 222.972 35.42 221.892 36.62C220.852 37.82 219.752 38.92 218.592 39.92C217.432 40.92 216.432 41.42 215.592 41.42C214.512 41.34 213.732 40.74 213.252 39.62C212.772 38.5 212.532 37.18 212.532 35.66C212.532 32.98 213.032 29.96 214.032 26.6C215.032 23.24 216.252 20.32 217.692 17.84C219.132 15.36 220.532 14.12 221.892 14.12C223.052 14.12 223.632 14.82 223.632 16.22C223.632 17.58 223.032 19.36 221.832 21.56C220.672 23.72 219.372 25.72 217.932 27.56C216.532 29.4 215.352 30.6 214.392 31.16C213.992 33.24 213.792 35.04 213.792 36.56C213.792 37.76 213.932 38.74 214.212 39.5C214.492 40.26 214.972 40.66 215.652 40.7C216.412 40.7 217.392 40.14 218.592 39.02C219.832 37.9 220.992 36.7 222.072 35.42C223.192 34.1 224.012 33.08 224.532 32.36C225.172 27.4 226.312 22.92 227.952 18.92C229.632 14.92 231.232 12.92 232.752 12.92C233.632 12.92 234.152 13.64 234.312 15.08C234.192 17.12 233.312 19.62 231.672 22.58C230.072 25.54 228.192 28.54 226.032 31.58C225.592 34.14 225.372 36.54 225.372 38.78C225.372 40.9 225.612 42.76 226.092 44.36C226.572 45.96 227.352 47.1 228.432 47.78L228.312 48.08ZM214.572 30.14C215.492 29.38 216.592 28.14 217.872 26.42C219.192 24.7 220.372 22.88 221.412 20.96C222.452 19 222.972 17.42 222.972 16.22C222.972 15.22 222.612 14.74 221.892 14.78C220.692 14.78 219.372 16.4 217.932 19.64C216.532 22.88 215.412 26.38 214.572 30.14ZM226.272 30.02C230.792 23.66 233.232 18.64 233.592 14.96C233.592 14.56 233.492 14.22 233.292 13.94C233.132 13.62 232.932 13.46 232.692 13.46C231.812 13.46 230.732 15.12 229.452 18.44C228.172 21.76 227.112 25.62 226.272 30.02ZM229.847 38.84C229.127 38.84 228.707 38.28 228.587 37.16C228.587 35.68 229.167 34.08 230.327 32.36C231.487 30.6 232.747 29.62 234.107 29.42C234.747 29.42 235.367 29.84 235.967 30.68L236.627 29.54C236.747 29.38 236.887 29.3 237.047 29.3C237.247 29.3 237.427 29.38 237.587 29.54C237.787 29.7 237.887 29.88 237.887 30.08C237.767 30.52 237.587 31.04 237.347 31.64C237.147 32.2 236.947 32.82 236.747 33.5C236.547 34.14 236.447 34.82 236.447 35.54C236.447 35.9 236.487 36.28 236.567 36.68C236.687 37.08 236.907 37.28 237.227 37.28C237.627 37.28 238.187 36.94 238.907 36.26C239.627 35.54 240.427 34.7 241.307 33.74C242.507 32.38 243.727 31.12 244.967 29.96C246.247 28.8 247.367 28.22 248.327 28.22C248.807 28.22 249.087 28.52 249.167 29.12C249.167 29.4 249.087 29.78 248.927 30.26L247.487 35.42C248.407 33.78 249.347 32.38 250.307 31.22C251.267 30.02 252.147 29.42 252.947 29.42C253.827 29.42 254.267 29.92 254.267 30.92C254.267 31.92 253.987 33.1 253.427 34.46C253.027 35.46 252.827 36.2 252.827 36.68C252.827 36.88 252.847 37 252.887 37.04C252.967 37.08 253.067 37.1 253.187 37.1C253.187 37.14 253.207 37.16 253.247 37.16C253.847 37.16 254.827 36.7 256.187 35.78C257.547 34.82 258.807 33.84 259.967 32.84C261.127 31.84 261.807 31.18 262.007 30.86C262.087 30.74 262.167 30.68 262.247 30.68C262.327 30.68 262.387 30.72 262.427 30.8C262.507 30.84 262.547 30.9 262.547 30.98L262.487 31.16C262.087 31.68 261.267 32.46 260.027 33.5C258.787 34.54 257.427 35.54 255.947 36.5C254.507 37.42 253.367 37.88 252.527 37.88C252.207 37.8 251.967 37.72 251.807 37.64C251.647 37.52 251.567 37.24 251.567 36.8C251.567 35.96 251.867 34.88 252.467 33.56C252.947 32.36 253.187 31.44 253.187 30.8C253.187 30.4 253.047 30.2 252.767 30.2C252.207 30.2 251.507 30.72 250.667 31.76C249.867 32.76 249.107 33.84 248.387 35C247.707 36.16 247.227 37.02 246.947 37.58C246.907 37.7 246.827 37.8 246.707 37.88C246.587 37.92 246.467 37.94 246.347 37.94C246.187 37.94 246.047 37.9 245.927 37.82C245.807 37.74 245.747 37.64 245.747 37.52V37.4C246.027 36.48 246.347 35.28 246.707 33.8C247.107 32.28 247.447 31 247.727 29.96C247.767 29.88 247.787 29.82 247.787 29.78C247.827 29.7 247.847 29.64 247.847 29.6C247.847 29.56 247.847 29.5 247.847 29.42C247.847 29.18 247.767 29.06 247.607 29.06C247.207 29.06 246.627 29.42 245.867 30.14C245.107 30.86 244.247 31.72 243.287 32.72C242.087 34 240.867 35.18 239.627 36.26C238.427 37.34 237.467 37.88 236.747 37.88C236.187 37.88 235.787 37.6 235.547 37.04C235.347 36.48 235.247 35.92 235.247 35.36C235.247 34.8 235.307 34.26 235.427 33.74C235.547 33.18 235.667 32.7 235.787 32.3C235.747 32.38 235.707 32.46 235.667 32.54C234.707 34.06 233.707 35.5 232.667 36.86C231.627 38.18 230.687 38.84 229.847 38.84ZM229.727 38.36C230.327 38.36 231.167 37.66 232.247 36.26C233.327 34.82 234.287 33.4 235.127 32C234.807 31.36 234.407 31.04 233.927 31.04C233.287 31.04 232.607 31.48 231.887 32.36C231.167 33.24 230.547 34.22 230.027 35.3C229.507 36.34 229.247 37.16 229.247 37.76C229.247 38.16 229.407 38.36 229.727 38.36ZM262.476 38.12C261.876 38.12 261.376 37.94 260.976 37.58C260.536 37.22 260.316 36.74 260.316 36.14C260.356 35.38 260.576 34.64 260.976 33.92C261.376 33.16 261.816 32.48 262.296 31.88C262.016 31.72 261.876 31.5 261.876 31.22C261.876 30.9 261.976 30.64 262.176 30.44C262.416 30.24 262.856 30.04 263.496 29.84C263.576 29.72 263.656 29.6 263.736 29.48C263.776 29.36 263.836 29.28 263.916 29.24C263.996 29.16 264.156 29.12 264.396 29.12C264.596 29.12 264.796 29.18 264.996 29.3C265.196 29.38 265.296 29.48 265.296 29.6C265.296 29.64 265.276 29.68 265.236 29.72C265.236 29.72 265.236 29.74 265.236 29.78C265.236 29.78 265.216 29.8 265.176 29.84C265.176 29.84 265.156 29.86 265.116 29.9C265.516 30.06 265.796 30.32 265.956 30.68C266.156 31.04 266.296 31.42 266.376 31.82C267.416 31.82 268.596 31.74 269.916 31.58C271.236 31.42 272.276 31.16 273.036 30.8L273.216 30.74C273.336 30.74 273.436 30.78 273.516 30.86C273.596 30.94 273.636 31.02 273.636 31.1C273.636 31.22 273.556 31.32 273.396 31.4C272.596 31.76 271.516 32.04 270.156 32.24C268.796 32.4 267.536 32.5 266.376 32.54V32.84C266.376 34.4 265.936 35.68 265.056 36.68C264.216 37.64 263.356 38.12 262.476 38.12ZM265.656 31.82C265.536 31.14 265.216 30.68 264.696 30.44L263.856 31.7C264.376 31.78 264.976 31.82 265.656 31.82ZM262.476 37.52C262.956 37.52 263.496 37.24 264.096 36.68C264.736 36.08 265.216 35.24 265.536 34.16C265.656 33.56 265.716 33.02 265.716 32.54C265.436 32.54 265.216 32.54 265.056 32.54C264.936 32.5 264.836 32.48 264.756 32.48C264.636 32.48 264.536 32.48 264.456 32.48C264.416 32.48 264.316 32.46 264.156 32.42C263.996 32.38 263.776 32.34 263.496 32.3C263.016 33.02 262.576 33.8 262.176 34.64C261.816 35.44 261.636 36.08 261.636 36.56C261.636 37.2 261.916 37.52 262.476 37.52Z" fill="#746449"/>
</g>
<defs>
<filter id="filter0_d_3_6" x="0.0999999" y="0.359994" width="279.436" height="56.26" filterUnits="userSpaceOnUse" color-interpolation-filters="sRGB">
<feFlood flood-opacity="0" result="BackgroundImageFix"/>
<feColorMatrix in="SourceAlpha" type="matrix" values="0 0 0 0 0 0 0 0 0 0 0 0 0 0 0 0 0 0 127 0" result="hardAlpha"/>
<feOffset/>
<feGaussianBlur stdDeviation="2.95"/>
<feComposite in2="hardAlpha" operator="out"/>
<feColorMatrix type="matrix" values="0 0 0 0 1 0 0 0 0 1 0 0 0 0 1 0 0 0 0.25 0"/>
<feBlend mode="normal" in2="BackgroundImageFix" result="effect1_dropShadow_3_6"/>
<feBlend mode="normal" in="SourceGraphic" in2="effect1_dropShadow_3_6" result="shape"/>
</filter>
</defs>
</svg>
